<svg width="75" height="76" viewBox="0 0 75 76" fill="none" xmlns="http://www.w3.org/2000/svg">
<rect x="0.5" y="1" width="74" height="74" rx="14.5" stroke="#E2E8F0"/>
<path d="M43.1399 30.7847C40.6986 30.7847 39.6669 31.9496 37.9667 31.9496C36.2236 31.9496 34.894 30.7931 32.7785 30.7931C30.7078 30.7931 28.4996 32.0574 27.0974 34.211C25.1284 37.248 25.4626 42.9679 28.6516 47.8407C29.7923 49.5851 31.3157 51.5413 33.3137 51.5625H33.35C35.0865 51.5625 35.6024 50.4255 37.9922 50.4121H38.0285C40.3826 50.4121 40.8548 51.5559 42.5841 51.5559H42.6204C44.6184 51.5347 46.2235 49.3671 47.3642 47.6294C48.1852 46.3797 48.4904 45.7525 49.1201 44.3387C44.507 42.5877 43.7659 36.048 48.3281 33.5408C46.9356 31.797 44.9787 30.7871 43.1338 30.7871L43.1399 30.7847Z" fill="#0A3834"/>
<path d="M42.6038 24.439C41.1506 24.5377 39.4553 25.4628 38.4624 26.6707C37.5614 27.7654 36.8203 29.3893 37.111 30.9641H37.2272C38.7748 30.9641 40.3587 30.0323 41.2838 28.8383C42.1751 27.7018 42.8508 26.0913 42.6038 24.439Z" fill="#0A3834"/>
</svg>
