<svg width="33" height="33" viewBox="0 0 33 33" fill="none" xmlns="http://www.w3.org/2000/svg">
<path d="M16.5 3.09375C9.10787 3.09375 3.09375 9.10787 3.09375 16.5C3.09375 23.8921 9.10787 29.9062 16.5 29.9062C23.8921 29.9062 29.9062 23.8921 29.9062 16.5C29.9062 9.10787 23.8921 3.09375 16.5 3.09375ZM21.354 19.896C21.4538 19.9908 21.5336 20.1047 21.5887 20.2308C21.6438 20.3569 21.6731 20.4928 21.6748 20.6305C21.6766 20.7681 21.6508 20.9047 21.5989 21.0322C21.5471 21.1597 21.4702 21.2755 21.3729 21.3729C21.2755 21.4702 21.1597 21.5471 21.0322 21.5989C20.9047 21.6508 20.7681 21.6766 20.6305 21.6748C20.4928 21.6731 20.3569 21.6438 20.2308 21.5887C20.1047 21.5336 19.9908 21.4538 19.896 21.354L16.5 17.9586L13.104 21.354C12.909 21.5392 12.6494 21.6409 12.3805 21.6375C12.1116 21.6341 11.8546 21.5257 11.6645 21.3355C11.4743 21.1454 11.3659 20.8884 11.3625 20.6195C11.3591 20.3506 11.4608 20.091 11.646 19.896L15.0414 16.5L11.646 13.104C11.4608 12.909 11.3591 12.6494 11.3625 12.3805C11.3659 12.1116 11.4743 11.8546 11.6645 11.6645C11.8546 11.4743 12.1116 11.3659 12.3805 11.3625C12.6494 11.3591 12.909 11.4608 13.104 11.646L16.5 15.0414L19.896 11.646C20.091 11.4608 20.3506 11.3591 20.6195 11.3625C20.8884 11.3659 21.1454 11.4743 21.3355 11.6645C21.5257 11.8546 21.6341 12.1116 21.6375 12.3805C21.6409 12.6494 21.5392 12.909 21.354 13.104L17.9586 16.5L21.354 19.896Z" fill="#0A3834"/>
</svg>
