<svg width="26" height="25" viewBox="0 0 26 25" fill="none" xmlns="http://www.w3.org/2000/svg">
<path d="M23.3564 2.60011C23.2822 2.52171 23.1922 2.4586 23.0919 2.41457C22.9916 2.37055 22.8831 2.34653 22.7729 2.34398C22.6627 2.34142 22.5531 2.36038 22.4507 2.3997C22.3483 2.43903 22.2553 2.4979 22.1772 2.57277L21.5491 3.17384C21.473 3.24709 21.4302 3.34641 21.4302 3.44997C21.4302 3.55352 21.473 3.65284 21.5491 3.72609L22.1249 4.27882C22.1627 4.31529 22.2076 4.34422 22.257 4.36397C22.3064 4.38371 22.3594 4.39388 22.4129 4.39388C22.4664 4.39388 22.5194 4.38371 22.5688 4.36397C22.6182 4.34422 22.6631 4.31529 22.7008 4.27882L23.3132 3.69289C23.623 3.39552 23.6519 2.91115 23.3564 2.60011ZM20.279 4.39455L11.112 13.1934C11.0564 13.2466 11.016 13.3127 10.9947 13.3853L10.5707 14.5996C10.5605 14.6326 10.5598 14.6675 10.5686 14.7009C10.5774 14.7342 10.5954 14.7646 10.6207 14.7889C10.6459 14.8132 10.6776 14.8305 10.7122 14.8389C10.7468 14.8474 10.7832 14.8467 10.8175 14.8369L12.0794 14.4292C12.1549 14.4087 12.2236 14.3699 12.279 14.3164L21.4297 5.50099C21.5144 5.41872 21.5619 5.30765 21.5619 5.19191C21.5619 5.07617 21.5144 4.9651 21.4297 4.88283L20.9245 4.39455C20.8388 4.3124 20.7228 4.26627 20.6018 4.26627C20.4808 4.26627 20.3647 4.3124 20.279 4.39455Z" fill="white"/>
<path d="M19.6188 9.45605L13.4291 15.4194C13.1899 15.65 12.8958 15.8211 12.5724 15.918L11.2572 16.3413C10.9451 16.4261 10.6151 16.4293 10.3012 16.3506C9.98736 16.2719 9.701 16.1141 9.47166 15.8936C9.24231 15.6731 9.07827 15.3977 8.99642 15.096C8.91458 14.7942 8.91791 14.4769 9.00605 14.1768L9.44633 12.9121C9.54674 12.6012 9.72434 12.3185 9.96379 12.0884L16.1657 6.13574C16.2226 6.08114 16.2613 6.01156 16.277 5.93579C16.2927 5.86002 16.2847 5.78147 16.254 5.71007C16.2233 5.63868 16.1713 5.57764 16.1045 5.53469C16.0377 5.49173 15.9591 5.46879 15.8788 5.46875H5.28125C4.52704 5.46875 3.80372 5.75684 3.27042 6.26963C2.73711 6.78242 2.4375 7.47792 2.4375 8.20312V19.9219C2.4375 20.6471 2.73711 21.3426 3.27042 21.8554C3.80372 22.3682 4.52704 22.6562 5.28125 22.6562H17.4688C18.223 22.6562 18.9463 22.3682 19.4796 21.8554C20.0129 21.3426 20.3125 20.6471 20.3125 19.9219V9.73193C20.3125 9.65467 20.2886 9.57916 20.2439 9.51494C20.1993 9.45072 20.1358 9.40068 20.0615 9.37115C19.9873 9.34162 19.9056 9.33392 19.8268 9.34904C19.748 9.36415 19.6756 9.40139 19.6188 9.45605Z" fill="white"/>
</svg>
