<svg width="27" height="26" viewBox="0 0 27 26" fill="none" xmlns="http://www.w3.org/2000/svg">
<path d="M13.4821 5.96875C9.372 5.96875 5.15589 8.17139 1.83679 12.5767C1.74205 12.7038 1.69013 12.8541 1.6876 13.0085C1.68506 13.1629 1.73203 13.3146 1.82255 13.4443C4.37278 17.1406 8.53247 20.0312 13.4821 20.0312C18.378 20.0312 22.6231 17.1318 25.1781 13.4272C25.2665 13.3001 25.3135 13.152 25.3135 13.0007C25.3135 12.8495 25.2665 12.7014 25.1781 12.5742C22.6173 8.91211 18.3411 5.96875 13.4821 5.96875Z" stroke="#D9D9D9" stroke-width="2" stroke-linecap="round" stroke-linejoin="round"/>
<path d="M13.5 16.9062C15.83 16.9062 17.7188 15.1574 17.7188 13C17.7188 10.8426 15.83 9.09375 13.5 9.09375C11.17 9.09375 9.28125 10.8426 9.28125 13C9.28125 15.1574 11.17 16.9062 13.5 16.9062Z" stroke="#D9D9D9" stroke-width="2" stroke-miterlimit="10"/>
</svg>
