<svg width="75" height="76" viewBox="0 0 75 76" fill="none" xmlns="http://www.w3.org/2000/svg">
<rect x="0.5" y="1" width="74" height="74" rx="14.5" stroke="#E2E8F0"/>
<g clip-path="url(#clip0_74_2609)">
<path d="M50.4193 37.9997C50.4193 30.8697 44.6326 25.083 37.5026 25.083C30.3726 25.083 24.5859 30.8697 24.5859 37.9997C24.5859 44.2513 29.0293 49.4568 34.9193 50.658V41.8747H32.3359V37.9997H34.9193V34.7705C34.9193 32.2776 36.9472 30.2497 39.4401 30.2497H42.6693V34.1247H40.0859C39.3755 34.1247 38.7943 34.7059 38.7943 35.4163V37.9997H42.6693V41.8747H38.7943V50.8518C45.3172 50.2059 50.4193 44.7034 50.4193 37.9997Z" fill="#0A3834"/>
</g>
<defs>
<clipPath id="clip0_74_2609">
<rect width="31" height="31" fill="white" transform="translate(22 22.5)"/>
</clipPath>
</defs>
</svg>
