<svg width="21" height="21" viewBox="0 0 21 21" fill="none" xmlns="http://www.w3.org/2000/svg">
<path d="M10.7282 4.154C10.6672 4.09559 10.5859 4.06299 10.5014 4.06299C10.4169 4.06299 10.3357 4.09559 10.2746 4.154L2.72363 11.3674C2.69156 11.3981 2.66605 11.435 2.64864 11.4758C2.63123 11.5166 2.62227 11.5605 2.62232 11.6049L2.62109 18.3749C2.62109 18.723 2.75937 19.0569 3.00552 19.303C3.25166 19.5492 3.5855 19.6874 3.93359 19.6874H7.8752C8.04924 19.6874 8.21616 19.6183 8.33923 19.4952C8.4623 19.3722 8.53145 19.2052 8.53145 19.0312V13.4531C8.53145 13.366 8.56602 13.2826 8.62755 13.221C8.68909 13.1595 8.77255 13.1249 8.85957 13.1249H12.1408C12.2278 13.1249 12.3113 13.1595 12.3728 13.221C12.4344 13.2826 12.4689 13.366 12.4689 13.4531V19.0312C12.4689 19.2052 12.5381 19.3722 12.6612 19.4952C12.7842 19.6183 12.9511 19.6874 13.1252 19.6874H17.0652C17.4133 19.6874 17.7471 19.5492 17.9932 19.303C18.2394 19.0569 18.3777 18.723 18.3777 18.3749V11.6049C18.3777 11.5605 18.3688 11.5166 18.3513 11.4758C18.3339 11.435 18.3084 11.3981 18.2763 11.3674L10.7282 4.154Z" fill="white"/>
<path d="M20.135 10.014L17.067 7.07889V2.625C17.067 2.45095 16.9979 2.28403 16.8748 2.16096C16.7517 2.03789 16.5848 1.96875 16.4108 1.96875H14.442C14.268 1.96875 14.1011 2.03789 13.978 2.16096C13.8549 2.28403 13.7858 2.45095 13.7858 2.625V3.9375L11.4102 1.66605C11.1878 1.44129 10.8573 1.3125 10.5 1.3125C10.144 1.3125 9.81423 1.44129 9.59193 1.66646L0.867906 10.0131C0.612789 10.2592 0.580797 10.6641 0.812945 10.9307C0.871241 10.998 0.942621 11.0527 1.02274 11.0915C1.10286 11.1303 1.19004 11.1525 1.27898 11.1565C1.36792 11.1606 1.45676 11.1465 1.54009 11.1152C1.62342 11.0838 1.69949 11.0358 1.76369 10.9741L10.2744 2.84156C10.3355 2.78315 10.4167 2.75055 10.5012 2.75055C10.5858 2.75055 10.667 2.78315 10.7281 2.84156L19.2396 10.9741C19.365 11.0944 19.5329 11.16 19.7066 11.1566C19.8803 11.1532 20.0456 11.0811 20.1662 10.9561C20.418 10.6952 20.3971 10.2646 20.135 10.014Z" fill="white"/>
</svg>
