<svg width="21" height="19" viewBox="0 0 21 19" fill="none" xmlns="http://www.w3.org/2000/svg">
<g clip-path="url(#clip0_2423_4266)">
<path d="M10.5026 6.69332C11.4193 6.69332 12.1693 6.0069 12.1693 5.16795C12.1693 4.32899 11.4193 3.64258 10.5026 3.64258C9.58594 3.64258 8.83594 4.32899 8.83594 5.16795C8.83594 6.0069 9.58594 6.69332 10.5026 6.69332ZM10.5026 8.21869C9.58594 8.21869 8.83594 8.9051 8.83594 9.74406C8.83594 10.583 9.58594 11.2694 10.5026 11.2694C11.4193 11.2694 12.1693 10.583 12.1693 9.74406C12.1693 8.9051 11.4193 8.21869 10.5026 8.21869ZM10.5026 12.7948C9.58594 12.7948 8.83594 13.4812 8.83594 14.3202C8.83594 15.1591 9.58594 15.8455 10.5026 15.8455C11.4193 15.8455 12.1693 15.1591 12.1693 14.3202C12.1693 13.4812 11.4193 12.7948 10.5026 12.7948Z" fill="#A0AEC0"/>
</g>
<defs>
<clipPath id="clip0_2423_4266">
<rect width="20" height="18.3044" fill="white" transform="translate(0.5 0.591797)"/>
</clipPath>
</defs>
</svg>
