<svg width="16" height="16" viewBox="0 0 16 16" fill="none" xmlns="http://www.w3.org/2000/svg">
<path d="M13.6296 12.5959L10.873 9.83935C11.5367 8.95586 11.895 7.88047 11.8937 6.77549C11.8937 3.95303 9.59746 1.65674 6.775 1.65674C3.95254 1.65674 1.65625 3.95303 1.65625 6.77549C1.65625 9.59795 3.95254 11.8942 6.775 11.8942C7.87998 11.8954 8.95537 11.5372 9.83886 10.8735L12.5954 13.6301C12.7349 13.7548 12.9169 13.8214 13.104 13.8162C13.2911 13.8109 13.4691 13.7343 13.6014 13.6019C13.7338 13.4696 13.8104 13.2916 13.8157 13.1045C13.8209 12.9174 13.7543 12.7354 13.6296 12.5959V12.5959ZM3.11875 6.77549C3.11875 6.05235 3.33318 5.34545 3.73494 4.74418C4.13669 4.14292 4.70772 3.67429 5.37581 3.39755C6.0439 3.12082 6.77905 3.04841 7.4883 3.18949C8.19754 3.33057 8.84902 3.67879 9.36036 4.19013C9.87169 4.70146 10.2199 5.35294 10.361 6.06219C10.5021 6.77143 10.4297 7.50658 10.1529 8.17467C9.8762 8.84276 9.40757 9.41379 8.8063 9.81555C8.20503 10.2173 7.49814 10.4317 6.775 10.4317C5.80566 10.4306 4.87635 10.045 4.19092 9.35956C3.5055 8.67413 3.11991 7.74483 3.11875 6.77549V6.77549Z" fill="#0A3834"/>
</svg>
