<svg width="12" height="12" viewBox="0 0 12 12" fill="none" xmlns="http://www.w3.org/2000/svg">
<g clip-path="url(#clip0_2423_4059)">
<path d="M10.3143 7.99945C10.2754 7.95257 10.2372 7.9057 10.1997 7.86046C9.68408 7.23679 9.37213 6.86039 9.37213 5.09484C9.37213 4.18078 9.15346 3.43078 8.72244 2.86828C8.40463 2.45273 7.97502 2.1375 7.40877 1.90453C7.40149 1.90048 7.39498 1.89516 7.38955 1.88883C7.18588 1.2068 6.62854 0.75 5.99995 0.75C5.37135 0.75 4.81424 1.2068 4.61057 1.88812C4.60514 1.89422 4.59872 1.89937 4.59159 1.90336C3.27018 2.44734 2.62799 3.49101 2.62799 5.09414C2.62799 6.86039 2.31651 7.23679 1.80042 7.85976C1.76292 7.905 1.72471 7.95093 1.68581 7.99875C1.58531 8.11995 1.52163 8.2674 1.50232 8.42366C1.483 8.57992 1.50886 8.73844 1.57682 8.88046C1.72143 9.18515 2.02963 9.37429 2.38143 9.37429H9.62104C9.97119 9.37429 10.2773 9.18539 10.4224 8.8821C10.4906 8.74005 10.5167 8.5814 10.4976 8.42496C10.4784 8.26852 10.4148 8.12085 10.3143 7.99945Z" fill="#0A3834"/>
<path d="M6.00142 11.25C6.3401 11.2497 6.67239 11.1578 6.96305 10.9839C7.25371 10.8101 7.4919 10.5608 7.65236 10.2626C7.65992 10.2483 7.66365 10.2323 7.6632 10.2161C7.66274 10.2 7.65812 10.1842 7.64976 10.1703C7.64141 10.1565 7.62962 10.145 7.61554 10.1371C7.60146 10.1292 7.58556 10.125 7.56939 10.125H4.43392C4.41773 10.1249 4.40181 10.1291 4.38769 10.137C4.37357 10.1449 4.36175 10.1564 4.35337 10.1702C4.345 10.1841 4.34035 10.1999 4.33988 10.2161C4.33942 10.2322 4.34315 10.2483 4.35072 10.2626C4.51116 10.5608 4.74931 10.81 5.03992 10.9839C5.33054 11.1577 5.66278 11.2497 6.00142 11.25Z" fill="#0A3834"/>
</g>
<defs>
<clipPath id="clip0_2423_4059">
<rect width="12" height="12" fill="white"/>
</clipPath>
</defs>
</svg>
