<svg width="12" height="12" viewBox="0 0 12 12" fill="none" xmlns="http://www.w3.org/2000/svg">
<g clip-path="url(#clip0_2423_4058)">
<path d="M5.99954 4.125C5.6287 4.125 5.26619 4.23497 4.95785 4.44099C4.64951 4.64702 4.40918 4.93986 4.26727 5.28247C4.12535 5.62508 4.08822 6.00208 4.16057 6.36579C4.23292 6.72951 4.41149 7.0636 4.67372 7.32582C4.93594 7.58805 5.27003 7.76662 5.63375 7.83897C5.99746 7.91132 6.37446 7.87419 6.71707 7.73227C7.05969 7.59036 7.35252 7.35003 7.55855 7.04169C7.76458 6.73335 7.87454 6.37084 7.87454 6C7.87306 5.50317 7.67504 5.02712 7.32373 4.67581C6.97242 4.3245 6.49637 4.12648 5.99954 4.125ZM10.0477 6C10.0467 6.1752 10.0338 6.35013 10.0092 6.52359L11.1504 7.41703C11.2001 7.45807 11.2336 7.51544 11.2449 7.5789C11.2562 7.64236 11.2445 7.70777 11.212 7.76343L10.1325 9.62718C10.0997 9.68236 10.0485 9.72419 9.98785 9.74533C9.92724 9.76646 9.86111 9.76554 9.8011 9.74273L8.45931 9.20367C8.1799 9.41882 7.87415 9.59738 7.54946 9.735L7.34884 11.1595C7.33761 11.2233 7.30457 11.2813 7.25537 11.3234C7.20616 11.3656 7.14385 11.3893 7.07907 11.3906H4.92001C4.85641 11.3894 4.79511 11.3666 4.74612 11.3261C4.69712 11.2855 4.66333 11.2295 4.65025 11.1673L4.44962 9.74273C4.12404 9.60671 3.81807 9.42787 3.53978 9.21093L2.19798 9.75C2.138 9.77283 2.07189 9.77378 2.01128 9.75269C1.95067 9.7316 1.89943 9.68982 1.86658 9.63468L0.787045 7.77117C0.754551 7.7155 0.74291 7.6501 0.754202 7.58664C0.765494 7.52318 0.798983 7.4658 0.848686 7.42476L1.98986 6.53133C1.96552 6.35524 1.95268 6.17775 1.95142 6C1.95239 5.8248 1.96524 5.64987 1.98986 5.4764L0.848686 4.58297C0.798983 4.54193 0.765494 4.48455 0.754202 4.42109C0.74291 4.35763 0.754551 4.29223 0.787045 4.23656L1.86658 2.37281C1.89939 2.31764 1.95061 2.27581 2.01123 2.25467C2.07185 2.23354 2.13798 2.23446 2.19798 2.25727L3.53978 2.79633C3.81918 2.58117 4.12494 2.40262 4.44962 2.265L4.65025 0.840469C4.66147 0.77666 4.69451 0.718731 4.74372 0.676581C4.79292 0.634431 4.85524 0.610675 4.92001 0.609375H7.07907C7.14267 0.610613 7.20397 0.633373 7.25297 0.67394C7.30196 0.714507 7.33576 0.770484 7.34884 0.832734L7.54946 2.25727C7.87545 2.3932 8.18183 2.57204 8.46048 2.78906L9.8011 2.25C9.86108 2.22717 9.92719 2.22622 9.98781 2.24731C10.0484 2.2684 10.0997 2.31018 10.1325 2.36531L11.212 4.22906C11.2445 4.28473 11.2562 4.35013 11.2449 4.41359C11.2336 4.47705 11.2001 4.53443 11.1504 4.57547L10.0092 5.4689C10.0336 5.64491 10.0464 5.82232 10.0477 6Z" fill="#0A3834"/>
</g>
<defs>
<clipPath id="clip0_2423_4058">
<rect width="12" height="12" fill="white"/>
</clipPath>
</defs>
</svg>
