<svg width="26" height="25" viewBox="0 0 26 25" fill="none" xmlns="http://www.w3.org/2000/svg">
<path d="M12.7158 3.5C7.49638 3.5 3.26172 7.53125 3.26172 12.5C3.26172 17.4687 7.49638 21.5 12.7158 21.5C17.9353 21.5 22.17 17.4687 22.17 12.5C22.17 7.53125 17.9353 3.5 12.7158 3.5ZM12.4204 17.75C12.2256 17.75 12.0352 17.695 11.8733 17.592C11.7113 17.489 11.5851 17.3426 11.5106 17.1713C11.436 17 11.4165 16.8115 11.4545 16.6296C11.4925 16.4477 11.5863 16.2807 11.724 16.1496C11.8618 16.0185 12.0372 15.9292 12.2283 15.893C12.4193 15.8568 12.6173 15.8754 12.7973 15.9464C12.9772 16.0173 13.131 16.1375 13.2392 16.2916C13.3475 16.4458 13.4052 16.6271 13.4052 16.8125C13.4052 17.0611 13.3015 17.2996 13.1168 17.4754C12.9321 17.6512 12.6816 17.75 12.4204 17.75ZM14.067 12.9687C13.2688 13.4787 13.159 13.9461 13.159 14.375C13.159 14.549 13.0864 14.716 12.9571 14.839C12.8278 14.9621 12.6525 15.0312 12.4696 15.0312C12.2868 15.0312 12.1115 14.9621 11.9822 14.839C11.8529 14.716 11.7803 14.549 11.7803 14.375C11.7803 13.348 12.2766 12.5314 13.2979 11.8784C14.2472 11.2719 14.7839 10.8875 14.7839 10.0423C14.7839 9.46766 14.4393 9.03125 13.7258 8.70828C13.5579 8.63234 13.1841 8.55828 12.7242 8.56344C12.1471 8.57047 11.699 8.70172 11.3539 8.96609C10.7029 9.46484 10.6478 10.0077 10.6478 10.0156C10.6434 10.1018 10.6212 10.1863 10.5826 10.2644C10.5439 10.3424 10.4894 10.4124 10.4223 10.4704C10.3552 10.5284 10.2768 10.5732 10.1915 10.6024C10.1062 10.6315 10.0157 10.6444 9.92515 10.6402C9.83463 10.6361 9.74584 10.615 9.66388 10.5782C9.58191 10.5414 9.50836 10.4895 9.44744 10.4256C9.38651 10.3618 9.3394 10.2871 9.30878 10.2059C9.27817 10.1247 9.26466 10.0385 9.26903 9.95234C9.27444 9.83844 9.35766 8.81234 10.4887 7.94609C11.0752 7.49703 11.8212 7.26359 12.7045 7.25328C13.3299 7.24625 13.9173 7.34703 14.3157 7.52609C15.5078 8.06281 16.1627 8.95766 16.1627 10.0423C16.1627 11.6281 15.0493 12.3402 14.067 12.9687Z" fill="#0A3834"/>
</svg>
