<svg width="17" height="16" viewBox="0 0 17 16" fill="none" xmlns="http://www.w3.org/2000/svg">
<path d="M5.35696 7.56252C5.40478 7.5147 5.46215 7.47622 5.52578 7.44927C5.58941 7.42233 5.65806 7.40744 5.72781 7.40547C5.79755 7.4035 5.86702 7.41447 5.93226 7.43777C5.9975 7.46107 6.05722 7.49624 6.10801 7.54127C8.55276 9.70877 11.0058 11.0275 13.8925 11.6997C14.282 10.6997 14.3165 9.59908 13.9801 8.52533C13.5339 7.10064 12.4946 5.85939 10.9756 4.93596C9.61957 4.11158 8.26422 3.89689 6.95303 3.68939C5.29885 3.42752 3.73631 3.18002 2.24516 1.69408C2.07914 1.52971 1.85303 1.46377 1.63688 1.51721C1.38985 1.57971 1.22416 1.76346 1.14481 2.06721C0.95887 2.77814 1.0784 4.77064 1.60135 6.87408C2.44106 10.2535 3.78114 11.9635 4.75764 12.8031C6.01936 13.8872 7.6669 14.4875 9.30414 14.4875C9.61275 14.488 9.92097 14.4667 10.2262 14.4238C11.6111 14.2263 12.7639 13.5716 13.4137 12.6191C10.4423 11.8916 7.90397 10.5081 5.37854 8.27033C5.32765 8.22524 5.28672 8.17114 5.25809 8.11113C5.22946 8.05113 5.21369 7.98639 5.21168 7.92064C5.20968 7.85489 5.22148 7.78941 5.24641 7.72796C5.27133 7.6665 5.3089 7.61028 5.35696 7.56252ZM15.5198 12.006C14.961 11.925 14.4197 11.8235 13.8928 11.7006C13.7845 11.979 13.6497 12.2476 13.4901 12.5031C13.4658 12.5422 13.4403 12.581 13.414 12.6191C14.0549 12.7752 14.7039 12.9004 15.3584 12.9941C15.428 13.0056 15.4994 13.0039 15.5684 12.9891C15.6373 12.9744 15.7024 12.9468 15.7599 12.908C15.8174 12.8692 15.866 12.82 15.903 12.7633C15.9401 12.7066 15.9647 12.6435 15.9754 12.5777C15.9862 12.512 15.9829 12.4448 15.9657 12.3803C15.9486 12.3157 15.9179 12.255 15.8755 12.2018C15.8331 12.1485 15.7798 12.1038 15.7188 12.0701C15.6577 12.0365 15.5902 12.0147 15.5201 12.006H15.5198Z" fill="white"/>
</svg>
