<svg width="469" height="191" viewBox="0 0 469 191" fill="none" xmlns="http://www.w3.org/2000/svg">
<path d="M404.184 129.565C428.442 119.691 456.864 133.679 468.043 141.908V190.032H0.770203V1.74512C24.2456 7.39347 39.337 53.8355 43.1098 83.3325C46.187 107.39 46.3237 124.545 62.6727 129.565C79.1091 134.613 98.5964 118.551 115.085 96.7945C128.276 79.3892 147.969 89.5423 156.167 96.7945C170.7 109.416 194.638 117.976 213.866 105.089C237.9 88.9808 251.175 93.5832 281.497 105.089C311.82 116.595 308.745 123.917 334.037 141.908C359.329 159.899 373.862 141.908 404.184 129.565Z" fill="url(#paint0_linear_2423_4169)"/>
<path d="M468.043 141.908C456.864 133.679 428.442 119.691 404.184 129.565C373.862 141.908 359.329 159.899 334.037 141.908C308.745 123.917 311.82 116.595 281.497 105.089C251.175 93.5832 237.9 88.9808 213.866 105.089C194.638 117.976 170.7 109.416 156.167 96.7945C147.969 89.5423 128.276 79.3892 115.085 96.7945C98.5965 118.551 79.1091 134.613 62.6727 129.565C46.3238 124.545 46.187 107.39 43.1099 83.3325C39.337 53.8355 24.2457 7.39347 0.770258 1.74512" stroke="#0C3D37" stroke-width="3"/>
<path d="M64.3678 109.713C40.2964 99.8457 12.0928 113.824 1 122.046V190.413H467.716V28.6312C444.422 34.2755 424.633 32.8118 420.889 62.2871C417.835 86.3273 417.7 103.469 401.476 108.486C385.166 113.53 375.686 84.0278 359.324 62.2871C346.234 44.8946 324.189 67.5269 316.054 74.7737C301.634 87.3861 268.851 59.8678 254.644 38.2364C234.358 7.34916 207.681 4.52411 187.533 38.2364C167.385 71.9487 147.4 44.3093 122.302 62.2871C97.2046 80.265 94.4571 122.046 64.3678 109.713Z" fill="url(#paint1_linear_2423_4169)"/>
<path d="M1 122.185C12.0928 113.952 40.2964 99.9556 64.3678 109.835C94.4571 122.185 97.2046 80.3498 122.302 62.349C147.4 44.3481 167.385 72.0229 187.533 38.2674C207.681 4.51197 234.358 7.34064 254.644 38.2674C268.851 59.9265 301.634 87.4801 316.054 74.8515C324.189 67.5954 346.234 44.9342 359.324 62.349C375.686 84.1174 385.166 113.657 401.476 108.607C417.7 103.584 417.835 86.4199 420.889 62.349C424.633 32.8359 444.421 34.3014 467.716 28.65" stroke="#0C3D37" stroke-width="3"/>
<defs>
<linearGradient id="paint0_linear_2423_4169" x1="234.407" y1="1.74512" x2="234.407" y2="190.032" gradientUnits="userSpaceOnUse">
<stop offset="0.0001" stop-color="#7FBB9B"/>
<stop offset="1" stop-color="#74B395" stop-opacity="0.29"/>
</linearGradient>
<linearGradient id="paint1_linear_2423_4169" x1="234.358" y1="14" x2="234.358" y2="190.413" gradientUnits="userSpaceOnUse">
<stop stop-color="#11413C" stop-opacity="0.09"/>
<stop offset="1" stop-color="#1B5954" stop-opacity="0.27"/>
</linearGradient>
</defs>
</svg>
