<svg width="19" height="20" viewBox="0 0 19 20" fill="none" xmlns="http://www.w3.org/2000/svg">
<path d="M11.2812 13.125V14.6875C11.2812 15.1019 11.1249 15.4993 10.8465 15.7924C10.5681 16.0854 10.1906 16.25 9.79688 16.25H3.85938C3.46569 16.25 3.08814 16.0854 2.80976 15.7924C2.53139 15.4993 2.375 15.1019 2.375 14.6875V5.3125C2.375 4.8981 2.53139 4.50067 2.80976 4.20765C3.08814 3.91462 3.46569 3.75 3.85938 3.75H9.5C10.3197 3.75 11.2812 4.44961 11.2812 5.3125V6.875M13.6562 13.125L16.625 10L13.6562 6.875M6.53125 10H16.0312" stroke="#0A3834" stroke-width="2" stroke-linecap="round" stroke-linejoin="round"/>
</svg>
