<svg width="20" height="20" viewBox="0 0 20 20" fill="none" xmlns="http://www.w3.org/2000/svg">
<path d="M17.184 4.375H16.2535C16.2526 4.375 16.2517 4.37537 16.251 4.37603C16.2504 4.37669 16.25 4.37758 16.25 4.37852V16.25C16.25 16.5815 16.3817 16.8995 16.6161 17.1339C16.8505 17.3683 17.1685 17.5 17.5 17.5C17.8315 17.5 18.1495 17.3683 18.3839 17.1339C18.6183 16.8995 18.75 16.5815 18.75 16.25V5.94102C18.75 5.52568 18.585 5.12736 18.2913 4.83368C17.9976 4.53999 17.5993 4.375 17.184 4.375Z" fill="white"/>
<path d="M15 16.25V2.8125C15 2.60731 14.9596 2.40413 14.8811 2.21456C14.8025 2.02499 14.6874 1.85274 14.5424 1.70765C14.3973 1.56255 14.225 1.44746 14.0354 1.36894C13.8459 1.29042 13.6427 1.25 13.4375 1.25H2.8125C2.3981 1.25 2.00067 1.41462 1.70765 1.70765C1.41462 2.00067 1.25 2.3981 1.25 2.8125V16.5625C1.25 17.1427 1.48047 17.6991 1.8907 18.1093C2.30094 18.5195 2.85734 18.75 3.4375 18.75H16.8301C16.836 18.7501 16.8419 18.7489 16.8473 18.7467C16.8528 18.7444 16.8578 18.7411 16.862 18.737C16.8661 18.7328 16.8694 18.7278 16.8717 18.7223C16.8739 18.7169 16.8751 18.711 16.875 18.7051C16.875 18.6953 16.8717 18.6857 16.8657 18.6779C16.8597 18.6702 16.8513 18.6646 16.8418 18.6621C16.3131 18.5171 15.8466 18.2026 15.5139 17.7668C15.1812 17.3311 15.0006 16.7982 15 16.25ZM3.75 5C3.75 4.83424 3.81585 4.67527 3.93306 4.55806C4.05027 4.44085 4.20924 4.375 4.375 4.375H6.875C7.04076 4.375 7.19973 4.44085 7.31694 4.55806C7.43415 4.67527 7.5 4.83424 7.5 5V7.5C7.5 7.66576 7.43415 7.82473 7.31694 7.94194C7.19973 8.05915 7.04076 8.125 6.875 8.125H4.375C4.20924 8.125 4.05027 8.05915 3.93306 7.94194C3.81585 7.82473 3.75 7.66576 3.75 7.5V5ZM11.875 15.625H4.39258C4.05625 15.625 3.76758 15.3664 3.75078 15.0301C3.74671 14.9456 3.75984 14.8611 3.78937 14.7818C3.8189 14.7026 3.86422 14.6301 3.92259 14.5688C3.98095 14.5076 4.05114 14.4588 4.12891 14.4255C4.20667 14.3922 4.2904 14.375 4.375 14.375H11.8574C12.1937 14.375 12.4824 14.6336 12.4992 14.9699C12.5033 15.0544 12.4902 15.1389 12.4606 15.2182C12.4311 15.2974 12.3858 15.3699 12.3274 15.4312C12.269 15.4924 12.1989 15.5412 12.1211 15.5745C12.0433 15.6078 11.9596 15.625 11.875 15.625ZM11.875 13.125H4.39258C4.05625 13.125 3.76758 12.8664 3.75078 12.5301C3.74671 12.4456 3.75984 12.3611 3.78937 12.2818C3.8189 12.2026 3.86422 12.1301 3.92259 12.0688C3.98095 12.0076 4.05114 11.9588 4.12891 11.9255C4.20667 11.8922 4.2904 11.875 4.375 11.875H11.8574C12.1937 11.875 12.4824 12.1336 12.4992 12.4699C12.5033 12.5544 12.4902 12.6389 12.4606 12.7182C12.4311 12.7974 12.3858 12.8699 12.3274 12.9312C12.269 12.9924 12.1989 13.0412 12.1211 13.0745C12.0433 13.1078 11.9596 13.125 11.875 13.125ZM11.875 10.625H4.39258C4.05625 10.625 3.76758 10.3664 3.75078 10.0301C3.74671 9.94557 3.75984 9.86112 3.78937 9.78184C3.8189 9.70255 3.86422 9.63009 3.92259 9.56884C3.98095 9.5076 4.05114 9.45883 4.12891 9.42551C4.20667 9.39219 4.2904 9.37501 4.375 9.375H11.8574C12.1937 9.375 12.4824 9.63359 12.4992 9.96992C12.5033 10.0544 12.4902 10.1389 12.4606 10.2182C12.4311 10.2974 12.3858 10.3699 12.3274 10.4312C12.269 10.4924 12.1989 10.5412 12.1211 10.5745C12.0433 10.6078 11.9596 10.625 11.875 10.625ZM11.875 8.125H9.39258C9.05625 8.125 8.76758 7.86641 8.75078 7.53008C8.74671 7.44557 8.75984 7.36112 8.78937 7.28184C8.8189 7.20255 8.86422 7.13009 8.92259 7.06884C8.98095 7.0076 9.05114 6.95883 9.12891 6.92551C9.20667 6.89219 9.2904 6.87501 9.375 6.875H11.8574C12.1937 6.875 12.4824 7.13359 12.4992 7.46992C12.5033 7.55443 12.4902 7.63888 12.4606 7.71816C12.4311 7.79745 12.3858 7.86991 12.3274 7.93116C12.269 7.9924 12.1989 8.04117 12.1211 8.07449C12.0433 8.10781 11.9596 8.12499 11.875 8.125ZM11.875 5.625H9.39258C9.05625 5.625 8.76758 5.36641 8.75078 5.03008C8.74671 4.94557 8.75984 4.86112 8.78937 4.78184C8.8189 4.70255 8.86422 4.63009 8.92259 4.56884C8.98095 4.50759 9.05114 4.45883 9.12891 4.42551C9.20667 4.39219 9.2904 4.37501 9.375 4.375H11.8574C12.1937 4.375 12.4824 4.63359 12.4992 4.96992C12.5033 5.05443 12.4902 5.13888 12.4606 5.21816C12.4311 5.29745 12.3858 5.36991 12.3274 5.43116C12.269 5.4924 12.1989 5.54117 12.1211 5.57449C12.0433 5.60781 11.9596 5.62499 11.875 5.625Z" fill="white"/>
</svg>
