<svg width="35" height="4" viewBox="0 0 35 4" fill="none" xmlns="http://www.w3.org/2000/svg">
<path fill-rule="evenodd" clip-rule="evenodd" d="M1.75 3.74756C2.7165 3.74756 3.5 2.96406 3.5 1.99756C3.5 1.03106 2.7165 0.247559 1.75 0.247559C0.783502 0.247559 0 1.03106 0 1.99756C0 2.96406 0.783502 3.74756 1.75 3.74756ZM6.25003 3.74756C7.21653 3.74756 8.00003 2.96406 8.00003 1.99756C8.00003 1.03106 7.21653 0.247561 6.25003 0.247561C5.28353 0.247561 4.50003 1.03106 4.50003 1.99756C4.50003 2.96406 5.28353 3.74756 6.25003 3.74756ZM12.4998 1.99756C12.4998 2.96406 11.7163 3.74756 10.7498 3.74756C9.78334 3.74756 8.99984 2.96406 8.99984 1.99756C8.99984 1.03106 9.78334 0.247561 10.7498 0.247561C11.7163 0.247561 12.4998 1.03106 12.4998 1.99756ZM15.2501 3.74756C16.2166 3.74756 17.0001 2.96406 17.0001 1.99756C17.0001 1.03106 16.2166 0.247561 15.2501 0.247561C14.2836 0.247561 13.5001 1.03106 13.5001 1.99756C13.5001 2.96406 14.2836 3.74756 15.2501 3.74756ZM21.4999 1.99756C21.4999 2.96406 20.7164 3.74756 19.7499 3.74756C18.7834 3.74756 17.9999 2.96406 17.9999 1.99756C17.9999 1.03106 18.7834 0.247561 19.7499 0.247561C20.7164 0.247561 21.4999 1.03106 21.4999 1.99756ZM24.2502 3.74756C25.2167 3.74756 26.0002 2.96406 26.0002 1.99756C26.0002 1.03106 25.2167 0.247561 24.2502 0.247561C23.2837 0.247561 22.5002 1.03106 22.5002 1.99756C22.5002 2.96406 23.2837 3.74756 24.2502 3.74756ZM30.5 1.99756C30.5 2.96406 29.7165 3.74756 28.75 3.74756C27.7835 3.74756 27 2.96406 27 1.99756C27 1.03106 27.7835 0.247561 28.75 0.247561C29.7165 0.247561 30.5 1.03106 30.5 1.99756ZM33.2498 3.74756C34.2163 3.74756 34.9998 2.96406 34.9998 1.99756C34.9998 1.03106 34.2163 0.247561 33.2498 0.247561C32.2833 0.247561 31.4998 1.03106 31.4998 1.99756C31.4998 2.96406 32.2833 3.74756 33.2498 3.74756Z" fill="black"/>
</svg>
